<svg width="60" height="35" viewBox="0 0 60 35" fill="none" xmlns="http://www.w3.org/2000/svg">
<path d="M0.747 0.834999C1.233 0.823 1.647 0.814 1.989 0.808C2.337 0.802 2.616 0.799 2.826 0.799C3.48 0.799 3.993 0.937 4.365 1.213C4.743 1.483 4.932 1.891 4.932 2.437C4.932 2.701 4.857 2.947 4.707 3.175C4.557 3.403 4.365 3.568 4.131 3.67C4.281 3.718 4.422 3.796 4.554 3.904C4.692 4.006 4.809 4.129 4.905 4.273C5.001 4.411 5.076 4.564 5.13 4.732C5.19 4.894 5.22 5.062 5.22 5.236C5.22 5.854 5.022 6.313 4.626 6.613C4.236 6.907 3.681 7.054 2.961 7.054C2.739 7.054 2.445 7.051 2.079 7.045C1.713 7.039 1.269 7.03 0.747 7.018L0.684 6.955V0.898L0.747 0.834999ZM2.853 4.291H2.106V6.046C2.262 6.04 2.436 6.04 2.628 6.046C2.826 6.052 3.009 6.037 3.177 6.001C3.345 5.965 3.486 5.878 3.6 5.74C3.714 5.602 3.771 5.41 3.771 5.164C3.771 4.93 3.696 4.726 3.546 4.552C3.402 4.378 3.171 4.291 2.853 4.291ZM2.106 1.816V3.265H2.745C3.033 3.265 3.234 3.196 3.348 3.058C3.468 2.914 3.528 2.74 3.528 2.536C3.528 2.332 3.468 2.164 3.348 2.032C3.228 1.894 3.027 1.825 2.745 1.825C2.607 1.825 2.484 1.825 2.376 1.825C2.274 1.825 2.184 1.822 2.106 1.816ZM6.28411 0.834999C6.77011 0.823 7.18411 0.814 7.52611 0.808C7.87411 0.802 8.15311 0.799 8.36311 0.799C9.01711 0.799 9.53011 0.937 9.90211 1.213C10.2801 1.483 10.4691 1.891 10.4691 2.437C10.4691 2.701 10.3941 2.947 10.2441 3.175C10.0941 3.403 9.90211 3.568 9.66811 3.67C9.81811 3.718 9.95911 3.796 10.0911 3.904C10.2291 4.006 10.3461 4.129 10.4421 4.273C10.5381 4.411 10.6131 4.564 10.6671 4.732C10.7271 4.894 10.7571 5.062 10.7571 5.236C10.7571 5.854 10.5591 6.313 10.1631 6.613C9.77311 6.907 9.21811 7.054 8.49811 7.054C8.27611 7.054 7.98211 7.051 7.61611 7.045C7.25011 7.039 6.80611 7.03 6.28411 7.018L6.22111 6.955V0.898L6.28411 0.834999ZM8.39011 4.291H7.64311V6.046C7.79911 6.04 7.97311 6.04 8.16511 6.046C8.36311 6.052 8.54611 6.037 8.71411 6.001C8.88211 5.965 9.02311 5.878 9.13711 5.74C9.25111 5.602 9.30811 5.41 9.30811 5.164C9.30811 4.93 9.23311 4.726 9.08311 4.552C8.93911 4.378 8.70811 4.291 8.39011 4.291ZM7.64311 1.816V3.265H8.28211C8.57011 3.265 8.77111 3.196 8.88511 3.058C9.00511 2.914 9.06511 2.74 9.06511 2.536C9.06511 2.332 9.00511 2.164 8.88511 2.032C8.76511 1.894 8.56411 1.825 8.28211 1.825C8.14411 1.825 8.02111 1.825 7.91311 1.825C7.81111 1.825 7.72111 1.822 7.64311 1.816ZM11.8212 0.834999C12.3072 0.823 12.7212 0.814 13.0632 0.808C13.4112 0.802 13.6902 0.799 13.9002 0.799C14.5542 0.799 15.0672 0.937 15.4392 1.213C15.8172 1.483 16.0062 1.891 16.0062 2.437C16.0062 2.701 15.9312 2.947 15.7812 3.175C15.6312 3.403 15.4392 3.568 15.2052 3.67C15.3552 3.718 15.4962 3.796 15.6282 3.904C15.7662 4.006 15.8832 4.129 15.9792 4.273C16.0752 4.411 16.1502 4.564 16.2042 4.732C16.2642 4.894 16.2942 5.062 16.2942 5.236C16.2942 5.854 16.0962 6.313 15.7002 6.613C15.3102 6.907 14.7552 7.054 14.0352 7.054C13.8132 7.054 13.5192 7.051 13.1532 7.045C12.7872 7.039 12.3432 7.03 11.8212 7.018L11.7582 6.955V0.898L11.8212 0.834999ZM13.9272 4.291H13.1802V6.046C13.3362 6.04 13.5102 6.04 13.7022 6.046C13.9002 6.052 14.0832 6.037 14.2512 6.001C14.4192 5.965 14.5602 5.878 14.6742 5.74C14.7882 5.602 14.8452 5.41 14.8452 5.164C14.8452 4.93 14.7702 4.726 14.6202 4.552C14.4762 4.378 14.2452 4.291 13.9272 4.291ZM13.1802 1.816V3.265H13.8192C14.1072 3.265 14.3082 3.196 14.4222 3.058C14.5422 2.914 14.6022 2.74 14.6022 2.536C14.6022 2.332 14.5422 2.164 14.4222 2.032C14.3022 1.894 14.1012 1.825 13.8192 1.825C13.6812 1.825 13.5582 1.825 13.4502 1.825C13.3482 1.825 13.2582 1.822 13.1802 1.816ZM23.6829 2.752C23.6829 2.95 23.6529 3.139 23.5929 3.319C23.5329 3.493 23.4519 3.652 23.3499 3.796C23.2539 3.934 23.1369 4.057 22.9989 4.165C22.8669 4.267 22.7289 4.345 22.5849 4.399C22.8969 4.513 23.1279 4.789 23.2779 5.227L23.5479 5.992C23.6499 6.292 23.7999 6.514 23.9979 6.658C23.9079 6.778 23.7729 6.88 23.5929 6.964C23.4129 7.042 23.2149 7.081 22.9989 7.081C22.7829 7.081 22.6149 7.021 22.4949 6.901C22.3749 6.775 22.2639 6.559 22.1619 6.253L21.8379 5.308C21.7719 5.128 21.6819 4.99 21.5679 4.894C21.4599 4.798 21.2949 4.75 21.0729 4.75H20.7039V7C20.5119 7.036 20.2719 7.054 19.9839 7.054C19.6959 7.054 19.4589 7.036 19.2729 7V0.898L19.3359 0.834999C19.8579 0.823 20.2959 0.814 20.6499 0.808C21.0099 0.802 21.2919 0.799 21.4959 0.799C21.8259 0.799 22.1259 0.841 22.3959 0.925C22.6659 1.003 22.8939 1.123 23.0799 1.285C23.2719 1.447 23.4189 1.651 23.5209 1.897C23.6289 2.143 23.6829 2.428 23.6829 2.752ZM20.7039 1.879V3.643C20.9739 3.643 21.2049 3.64 21.3969 3.634C21.5889 3.622 21.7419 3.586 21.8559 3.526C21.9759 3.46 22.0659 3.37 22.1259 3.256C22.1859 3.142 22.2159 2.977 22.2159 2.761C22.2159 2.179 21.9339 1.888 21.3699 1.888C21.2319 1.888 21.1059 1.888 20.9919 1.888C20.8839 1.888 20.7879 1.885 20.7039 1.879ZM28.4292 6.352C28.3992 6.478 28.3422 6.613 28.2582 6.757C28.1742 6.901 28.0872 7.006 27.9972 7.072C27.5772 7.06 27.2532 6.901 27.0252 6.595C26.6352 6.955 26.2122 7.135 25.7562 7.135C25.5222 7.135 25.3182 7.096 25.1442 7.018C24.9702 6.946 24.8232 6.847 24.7032 6.721C24.5832 6.595 24.4932 6.451 24.4332 6.289C24.3732 6.121 24.3432 5.947 24.3432 5.767C24.3432 5.509 24.3882 5.284 24.4782 5.092C24.5742 4.894 24.7032 4.732 24.8652 4.606C25.0272 4.474 25.2162 4.375 25.4322 4.309C25.6482 4.243 25.8792 4.21 26.1252 4.21C26.2632 4.21 26.3832 4.213 26.4852 4.219C26.5932 4.219 26.6862 4.222 26.7642 4.228V4.057C26.7642 3.679 26.5692 3.49 26.1792 3.49C25.9272 3.49 25.4862 3.586 24.8562 3.778C24.6762 3.568 24.5622 3.241 24.5142 2.797C24.6582 2.743 24.8172 2.692 24.9912 2.644C25.1712 2.596 25.3542 2.554 25.5402 2.518C25.7262 2.482 25.9092 2.455 26.0892 2.437C26.2692 2.413 26.4312 2.401 26.5752 2.401C26.7852 2.401 26.9862 2.431 27.1782 2.491C27.3762 2.551 27.5472 2.644 27.6912 2.77C27.8412 2.89 27.9582 3.049 28.0422 3.247C28.1322 3.439 28.1772 3.67 28.1772 3.94V5.767C28.1772 6.043 28.2612 6.238 28.4292 6.352ZM25.7112 5.677C25.7112 5.959 25.8732 6.1 26.1972 6.1C26.3652 6.1 26.5542 6.013 26.7642 5.839V5.119C26.6442 5.113 26.5422 5.11 26.4582 5.11C26.3802 5.104 26.3202 5.101 26.2782 5.101C25.9002 5.101 25.7112 5.293 25.7112 5.677ZM31.794 2.5C31.83 2.668 31.848 2.836 31.848 3.004C31.848 3.172 31.83 3.337 31.794 3.499L30.723 3.481V5.551C30.723 5.833 30.855 5.974 31.119 5.974H31.623C31.701 6.19 31.74 6.388 31.74 6.568C31.74 6.748 31.728 6.877 31.704 6.955C31.26 7.015 30.852 7.045 30.48 7.045C29.724 7.045 29.346 6.628 29.346 5.794V3.49L28.644 3.499C28.602 3.349 28.581 3.187 28.581 3.013C28.581 2.833 28.602 2.662 28.644 2.5L29.346 2.518V1.996C29.346 1.69 29.403 1.474 29.517 1.348C29.637 1.216 29.835 1.15 30.111 1.15H30.66L30.723 1.213V2.518L31.794 2.5ZM34.328 3.544V7C34.226 7.018 34.115 7.03 33.995 7.036C33.875 7.048 33.752 7.054 33.626 7.054C33.5 7.054 33.374 7.048 33.248 7.036C33.128 7.03 33.017 7.018 32.915 7V4.021C32.915 3.673 32.774 3.499 32.492 3.499H32.357C32.321 3.385 32.303 3.226 32.303 3.022C32.303 2.824 32.321 2.656 32.357 2.518C32.513 2.506 32.657 2.497 32.789 2.491C32.921 2.479 33.041 2.473 33.149 2.473H33.347C33.653 2.473 33.893 2.569 34.067 2.761C34.241 2.953 34.328 3.214 34.328 3.544ZM32.753 0.7C32.927 0.604 33.152 0.556 33.428 0.556C33.71 0.556 33.929 0.604 34.085 0.7C34.157 0.862 34.193 1.036 34.193 1.222C34.193 1.408 34.157 1.582 34.085 1.744C33.911 1.834 33.683 1.879 33.401 1.879C33.119 1.879 32.903 1.834 32.753 1.744C32.681 1.582 32.645 1.408 32.645 1.222C32.645 1.036 32.681 0.862 32.753 0.7ZM39.2586 4.03V5.875C39.2586 6.271 39.3306 6.568 39.4746 6.766C39.2466 6.97 38.9736 7.072 38.6556 7.072C38.3436 7.072 38.1306 7 38.0166 6.856C37.9026 6.712 37.8456 6.493 37.8456 6.199V4.282C37.8456 4.078 37.8186 3.928 37.7646 3.832C37.7106 3.736 37.6056 3.688 37.4496 3.688C37.3596 3.688 37.2576 3.712 37.1436 3.76C37.0296 3.808 36.9126 3.886 36.7926 3.994V7C36.6906 7.018 36.5796 7.03 36.4596 7.036C36.3396 7.048 36.2166 7.054 36.0906 7.054C35.9646 7.054 35.8416 7.048 35.7216 7.036C35.6016 7.03 35.4906 7.018 35.3886 7V2.509L35.4516 2.446H35.9826C36.3486 2.446 36.5946 2.626 36.7206 2.986C37.1406 2.614 37.5576 2.428 37.9716 2.428C38.3916 2.428 38.7096 2.575 38.9256 2.869C39.1476 3.157 39.2586 3.544 39.2586 4.03ZM43.0465 2.797C43.2505 2.569 43.5325 2.449 43.8925 2.437C43.9885 2.509 44.0785 2.617 44.1625 2.761C44.2525 2.905 44.3065 3.037 44.3245 3.157C44.1565 3.271 44.0725 3.487 44.0725 3.805V6.181C44.0725 6.733 44.0275 7.189 43.9375 7.549C43.8535 7.915 43.7215 8.203 43.5415 8.413C43.3675 8.629 43.1455 8.779 42.8755 8.863C42.6055 8.947 42.2875 8.989 41.9215 8.989C41.3035 8.989 40.7395 8.89 40.2295 8.692C40.2295 8.524 40.2625 8.341 40.3285 8.143C40.3945 7.945 40.4755 7.789 40.5715 7.675C40.9735 7.855 41.3815 7.945 41.7955 7.945C42.4015 7.945 42.7045 7.642 42.7045 7.036V6.739C42.3805 6.973 42.0385 7.09 41.6785 7.09C41.1445 7.09 40.7395 6.88 40.4635 6.46C40.1935 6.034 40.0585 5.458 40.0585 4.732C40.0585 4.366 40.1035 4.039 40.1935 3.751C40.2895 3.457 40.4185 3.208 40.5805 3.004C40.7425 2.8 40.9285 2.644 41.1385 2.536C41.3545 2.428 41.5825 2.374 41.8225 2.374C42.3085 2.374 42.7165 2.515 43.0465 2.797ZM42.7045 5.65V3.724C42.4945 3.52 42.2965 3.418 42.1105 3.418C41.7025 3.418 41.4985 3.868 41.4985 4.768C41.4985 5.56 41.6755 5.956 42.0295 5.956C42.2755 5.956 42.5005 5.854 42.7045 5.65ZM45.2167 5.839C45.3187 5.785 45.4297 5.746 45.5497 5.722C45.6697 5.692 45.7927 5.677 45.9187 5.677C46.1947 5.677 46.4317 5.731 46.6297 5.839C46.7017 5.995 46.7377 6.178 46.7377 6.388C46.7377 6.49 46.7287 6.589 46.7107 6.685C46.6927 6.775 46.6657 6.856 46.6297 6.928C46.4617 7.042 46.2247 7.099 45.9187 7.099C45.6187 7.099 45.3847 7.042 45.2167 6.928C45.1807 6.856 45.1537 6.775 45.1357 6.685C45.1177 6.589 45.1087 6.49 45.1087 6.388C45.1087 6.178 45.1447 5.995 45.2167 5.839ZM45.2167 3.058C45.3187 3.004 45.4297 2.965 45.5497 2.941C45.6697 2.911 45.7927 2.896 45.9187 2.896C46.1947 2.896 46.4317 2.95 46.6297 3.058C46.7017 3.214 46.7377 3.397 46.7377 3.607C46.7377 3.709 46.7287 3.808 46.7107 3.904C46.6927 3.994 46.6657 4.075 46.6297 4.147C46.4617 4.261 46.2247 4.318 45.9187 4.318C45.6187 4.318 45.3847 4.261 45.2167 4.147C45.1807 4.075 45.1537 3.994 45.1357 3.904C45.1177 3.808 45.1087 3.709 45.1087 3.607C45.1087 3.397 45.1447 3.214 45.2167 3.058ZM51.3968 5.713C51.2348 5.713 51.1148 5.71 51.0368 5.704L50.6498 7.009C50.5058 7.045 50.3048 7.063 50.0468 7.063C49.7588 7.063 49.5248 7.03 49.3448 6.964L49.2998 6.892L51.2798 0.853C51.5138 0.817 51.7868 0.799 52.0988 0.799C52.4528 0.799 52.7348 0.82 52.9448 0.862L54.8888 6.91C54.6788 7.024 54.4418 7.081 54.1777 7.081C53.8658 7.081 53.6468 7.027 53.5208 6.919C53.3948 6.811 53.2868 6.604 53.1968 6.298L53.0258 5.704C52.9478 5.71 52.8308 5.713 52.6748 5.713H51.3968ZM51.3698 4.579L51.7298 4.57H52.3868C52.4168 4.57 52.4678 4.573 52.5398 4.579C52.6178 4.579 52.6748 4.579 52.7108 4.579L52.5578 4.021C52.4138 3.517 52.2488 2.899 52.0628 2.167H52.0088C51.9608 2.425 51.8168 2.998 51.5768 3.886L51.3698 4.579ZM56.758 3.751L56.749 3.13V2.374C56.917 2.338 57.115 2.32 57.343 2.32C57.571 2.32 57.769 2.338 57.937 2.374V3.13L57.928 3.751L58.54 3.742H59.251C59.293 3.934 59.314 4.129 59.314 4.327C59.314 4.519 59.293 4.699 59.251 4.867H58.54L57.928 4.858L57.937 5.47V6.235C57.769 6.271 57.571 6.289 57.343 6.289C57.115 6.289 56.917 6.271 56.749 6.235V5.47L56.758 4.858L56.146 4.867H55.435C55.393 4.705 55.372 4.519 55.372 4.309C55.372 4.099 55.393 3.91 55.435 3.742H56.146L56.758 3.751ZM4.149 20.586C4.077 20.802 3.96 20.961 3.798 21.063C3.444 20.997 3.204 20.811 3.078 20.505C2.652 20.913 2.214 21.117 1.764 21.117C1.536 21.117 1.335 21.081 1.161 21.009C0.993 20.937 0.849 20.841 0.729 20.721C0.615 20.595 0.528 20.454 0.468 20.298C0.414 20.136 0.387 19.968 0.387 19.794C0.387 19.302 0.543 18.93 0.855 18.678C1.173 18.426 1.593 18.3 2.115 18.3C2.265 18.3 2.412 18.306 2.556 18.318C2.7 18.324 2.841 18.339 2.979 18.363V18.012C2.979 17.478 2.733 17.211 2.241 17.211C1.899 17.211 1.428 17.325 0.828 17.553C0.654 17.403 0.564 17.178 0.558 16.878C1.17 16.602 1.791 16.464 2.421 16.464C2.889 16.464 3.252 16.59 3.51 16.842C3.768 17.088 3.897 17.463 3.897 17.967V19.812C3.897 20.184 3.981 20.442 4.149 20.586ZM1.917 20.379C2.301 20.379 2.655 20.199 2.979 19.839V18.984C2.859 18.972 2.733 18.963 2.601 18.957C2.469 18.951 2.331 18.948 2.187 18.948C1.911 18.948 1.695 19.017 1.539 19.155C1.389 19.287 1.314 19.464 1.314 19.686C1.314 19.902 1.368 20.073 1.476 20.199C1.584 20.319 1.731 20.379 1.917 20.379ZM4.84052 20.667C4.84652 20.565 4.87952 20.451 4.93952 20.325C4.99952 20.193 5.06852 20.091 5.14652 20.019C5.62652 20.283 6.01652 20.415 6.31652 20.415C6.62252 20.415 6.84752 20.364 6.99152 20.262C7.14152 20.16 7.21652 20.025 7.21652 19.857C7.21652 19.593 7.02752 19.389 6.64952 19.245L6.14552 19.056C5.38352 18.768 5.00252 18.339 5.00252 17.769C5.00252 17.355 5.14952 17.031 5.44352 16.797C5.74352 16.557 6.13352 16.437 6.61352 16.437C7.09952 16.437 7.58252 16.545 8.06252 16.761C8.06252 16.881 8.03552 17.007 7.98152 17.139C7.93352 17.271 7.86752 17.373 7.78352 17.445C7.35752 17.247 6.95852 17.148 6.58652 17.148C6.38852 17.148 6.22952 17.196 6.10952 17.292C5.99552 17.388 5.93852 17.508 5.93852 17.652C5.93852 17.796 5.98052 17.907 6.06452 17.985C6.15452 18.063 6.29852 18.141 6.49652 18.219L7.03652 18.426C7.79852 18.72 8.17952 19.17 8.17952 19.776C8.17952 20.19 8.02052 20.517 7.70252 20.757C7.38452 20.997 6.95252 21.117 6.40652 21.117C5.86052 21.117 5.33852 20.967 4.84052 20.667ZM14.1304 20.622C13.8004 20.952 13.3654 21.117 12.8254 21.117C12.5134 21.117 12.2374 21.063 11.9974 20.955C11.7574 20.841 11.5534 20.682 11.3854 20.478C11.2234 20.268 11.0974 20.022 11.0074 19.74C10.9234 19.452 10.8814 19.131 10.8814 18.777C10.8814 18.429 10.9234 18.111 11.0074 17.823C11.0974 17.535 11.2234 17.289 11.3854 17.085C11.5534 16.875 11.7574 16.716 11.9974 16.608C12.2374 16.494 12.5134 16.437 12.8254 16.437C13.1374 16.437 13.4134 16.494 13.6534 16.608C13.8934 16.716 14.0944 16.875 14.2564 17.085C14.4244 17.289 14.5504 17.535 14.6344 17.823C14.7244 18.111 14.7694 18.429 14.7694 18.777C14.7694 19.581 14.5564 20.196 14.1304 20.622ZM12.8254 17.148C12.1714 17.148 11.8444 17.691 11.8444 18.777C11.8444 19.863 12.1714 20.406 12.8254 20.406C13.4854 20.406 13.8154 19.863 13.8154 18.777C13.8154 17.691 13.4854 17.148 12.8254 17.148ZM16.0174 21V17.22L15.2434 17.238C15.2314 17.19 15.2224 17.136 15.2164 17.076C15.2104 17.016 15.2074 16.956 15.2074 16.896C15.2074 16.758 15.2194 16.641 15.2434 16.545L15.9724 16.554C15.9364 16.188 15.9184 15.921 15.9184 15.753C15.9184 15.549 15.9484 15.363 16.0084 15.195C16.0744 15.021 16.1674 14.871 16.2874 14.745C16.4074 14.619 16.5514 14.523 16.7194 14.457C16.8874 14.385 17.0764 14.349 17.2864 14.349C17.7064 14.349 18.0964 14.418 18.4564 14.556C18.4564 14.826 18.3844 15.036 18.2404 15.186C18.1024 15.144 17.9704 15.111 17.8444 15.087C17.7244 15.063 17.6134 15.051 17.5114 15.051C17.2594 15.051 17.0764 15.12 16.9624 15.258C16.8544 15.39 16.8004 15.591 16.8004 15.861C16.8004 15.963 16.8064 16.071 16.8184 16.185C16.8304 16.299 16.8454 16.425 16.8634 16.563L18.1324 16.545C18.1444 16.599 18.1534 16.656 18.1594 16.716C18.1654 16.77 18.1684 16.83 18.1684 16.896C18.1684 16.956 18.1654 17.016 18.1594 17.076C18.1534 17.136 18.1444 17.19 18.1324 17.238L16.9264 17.22V21C16.8604 21.012 16.7884 21.021 16.7104 21.027C16.6324 21.033 16.5514 21.036 16.4674 21.036C16.3834 21.036 16.3024 21.033 16.2244 21.027C16.1464 21.021 16.0774 21.012 16.0174 21ZM21.163 20.541C21.055 20.403 20.962 20.256 20.884 20.1C20.806 19.944 20.74 19.77 20.686 19.578C20.632 19.386 20.593 19.167 20.569 18.921C20.545 18.669 20.533 18.381 20.533 18.057C20.533 17.589 20.584 17.169 20.686 16.797C20.788 16.425 20.935 16.11 21.127 15.852C21.325 15.594 21.568 15.396 21.856 15.258C22.144 15.12 22.477 15.051 22.855 15.051C23.383 15.051 23.815 15.147 24.151 15.339C24.121 15.645 24.01 15.864 23.818 15.996C23.53 15.864 23.227 15.798 22.909 15.798C22.453 15.798 22.111 15.963 21.883 16.293C21.655 16.617 21.532 17.058 21.514 17.616C21.88 17.274 22.315 17.103 22.819 17.103C23.329 17.103 23.728 17.265 24.016 17.589C24.304 17.913 24.448 18.393 24.448 19.029C24.448 19.335 24.4 19.617 24.304 19.875C24.214 20.133 24.085 20.355 23.917 20.541C23.749 20.721 23.545 20.862 23.305 20.964C23.071 21.066 22.807 21.117 22.513 21.117C21.943 21.117 21.493 20.925 21.163 20.541ZM22.576 17.886C22.186 17.886 21.832 18.054 21.514 18.39V18.534C21.514 19.146 21.601 19.611 21.775 19.929C21.955 20.241 22.219 20.397 22.567 20.397C22.855 20.397 23.08 20.283 23.242 20.055C23.41 19.827 23.494 19.515 23.494 19.119C23.494 18.297 23.188 17.886 22.576 17.886ZM24.9185 21.693L27.7625 14.151C28.0625 14.169 28.3325 14.268 28.5725 14.448L25.7285 21.999C25.4285 21.981 25.1585 21.879 24.9185 21.693ZM32.6033 15.168C32.6453 15.288 32.6663 15.417 32.6663 15.555C32.6663 15.831 32.5283 15.969 32.2523 15.969H30.3533V16.419L30.2903 17.283C30.5483 17.175 30.8123 17.121 31.0823 17.121C31.6403 17.121 32.0843 17.289 32.4143 17.625C32.7443 17.955 32.9093 18.438 32.9093 19.074C32.9093 19.386 32.8523 19.668 32.7383 19.92C32.6303 20.172 32.4833 20.388 32.2973 20.568C32.1113 20.742 31.8923 20.877 31.6403 20.973C31.3883 21.069 31.1243 21.117 30.8483 21.117C30.1583 21.117 29.5943 20.925 29.1563 20.541C29.1743 20.439 29.2223 20.328 29.3003 20.208C29.3783 20.082 29.4623 19.986 29.5523 19.92C29.7683 20.07 29.9783 20.181 30.1823 20.253C30.3863 20.319 30.5783 20.352 30.7583 20.352C31.1063 20.352 31.3883 20.238 31.6043 20.01C31.8263 19.776 31.9373 19.458 31.9373 19.056C31.9373 18.846 31.9073 18.666 31.8473 18.516C31.7933 18.366 31.7093 18.243 31.5953 18.147C31.4873 18.051 31.3703 17.982 31.2443 17.94C31.1183 17.892 30.9773 17.868 30.8213 17.868C30.6593 17.868 30.4913 17.898 30.3173 17.958C30.1433 18.018 29.9753 18.117 29.8133 18.255C29.7293 18.243 29.6423 18.207 29.5523 18.147C29.4683 18.081 29.4053 18.012 29.3633 17.94L29.4893 15.231L29.5523 15.168H32.6033ZM33.4878 21.693L36.3318 14.151C36.6318 14.169 36.9018 14.268 37.1418 14.448L34.2978 21.999C33.9978 21.981 33.7278 21.879 33.4878 21.693ZM41.4967 20.181C41.4967 20.439 41.4577 20.64 41.3797 20.784C41.3017 20.928 41.1337 21 40.8757 21H38.0767C37.8307 20.784 37.7077 20.589 37.7077 20.415C37.7077 19.935 38.0827 19.365 38.8327 18.705L39.7147 17.931C39.9427 17.733 40.1107 17.532 40.2187 17.328C40.3327 17.118 40.3897 16.914 40.3897 16.716C40.3897 16.446 40.3087 16.23 40.1467 16.068C39.9847 15.906 39.7777 15.825 39.5257 15.825C39.2737 15.825 39.0547 15.906 38.8687 16.068C38.6887 16.224 38.5477 16.428 38.4457 16.68C38.3197 16.674 38.1907 16.644 38.0587 16.59C37.9267 16.53 37.8307 16.455 37.7707 16.365C37.8367 16.179 37.9267 16.008 38.0407 15.852C38.1547 15.69 38.2897 15.552 38.4457 15.438C38.6077 15.318 38.7907 15.225 38.9947 15.159C39.1987 15.087 39.4237 15.051 39.6697 15.051C39.9097 15.051 40.1317 15.093 40.3357 15.177C40.5457 15.261 40.7257 15.378 40.8757 15.528C41.0257 15.672 41.1427 15.843 41.2267 16.041C41.3107 16.233 41.3527 16.44 41.3527 16.662C41.3527 16.89 41.3287 17.091 41.2807 17.265C41.2327 17.433 41.1607 17.592 41.0647 17.742C40.9687 17.892 40.8487 18.036 40.7047 18.174C40.5667 18.312 40.4077 18.459 40.2277 18.615L39.5347 19.209C39.0067 19.665 38.7127 20.013 38.6527 20.253C38.8867 20.229 39.1027 20.211 39.3007 20.199C39.4987 20.187 39.6787 20.181 39.8407 20.181H41.4967ZM43.0651 15.573C43.4131 15.225 43.8511 15.051 44.3791 15.051C45.0331 15.051 45.5251 15.291 45.8551 15.771C46.1851 16.245 46.3501 17.016 46.3501 18.084C46.3501 19.146 46.1881 19.917 45.8641 20.397C45.5461 20.877 45.0511 21.117 44.3791 21.117C43.7011 21.117 43.1971 20.865 42.8671 20.361C42.5431 19.857 42.3901 19.098 42.4081 18.084C42.4081 17.778 42.4171 17.502 42.4351 17.256C42.4591 17.004 42.4951 16.776 42.5431 16.572C42.5911 16.368 42.6571 16.185 42.7411 16.023C42.8311 15.861 42.9391 15.711 43.0651 15.573ZM43.7311 20.064C43.8691 20.274 44.0851 20.379 44.3791 20.379C44.5531 20.379 44.7001 20.343 44.8201 20.271C44.9461 20.193 45.0481 20.067 45.1261 19.893C45.2101 19.713 45.2701 19.476 45.3061 19.182C45.3481 18.888 45.3691 18.522 45.3691 18.084C45.3691 17.646 45.3481 17.28 45.3061 16.986C45.2701 16.692 45.2101 16.458 45.1261 16.284C45.0481 16.104 44.9461 15.978 44.8201 15.906C44.7001 15.828 44.5531 15.789 44.3791 15.789C44.2051 15.789 44.0551 15.828 43.9291 15.906C43.8091 15.978 43.7071 16.104 43.6231 16.284C43.5451 16.458 43.4851 16.692 43.4431 16.986C43.4071 17.28 43.3891 17.646 43.3891 18.084C43.3891 19.104 43.5031 19.764 43.7311 20.064ZM48.9536 20.226L48.9446 19.623V17.571C48.9446 17.475 48.9596 17.112 48.9896 16.482C48.6536 16.896 48.2216 17.22 47.6936 17.454C47.4776 17.334 47.3456 17.148 47.2976 16.896C48.1376 16.374 48.6986 15.798 48.9806 15.168C49.1066 15.138 49.2506 15.123 49.4126 15.123C49.5806 15.123 49.7306 15.138 49.8626 15.168V19.623L49.8536 20.226L50.3846 20.217H51.0056C51.0296 20.331 51.0416 20.463 51.0416 20.613C51.0416 20.757 51.0296 20.886 51.0056 21H47.6126C47.5886 20.88 47.5766 20.748 47.5766 20.604C47.5766 20.46 47.5886 20.331 47.6126 20.217H48.4406L48.9536 20.226ZM51.9351 19.533C51.9351 19.191 52.0341 18.885 52.2321 18.615C52.4301 18.345 52.6821 18.129 52.9881 17.967C52.3881 17.643 52.0881 17.184 52.0881 16.59C52.0881 16.368 52.1331 16.164 52.2231 15.978C52.3191 15.786 52.4511 15.624 52.6191 15.492C52.7871 15.354 52.9821 15.246 53.2041 15.168C53.4261 15.09 53.6691 15.051 53.9331 15.051C54.1971 15.051 54.4401 15.09 54.6621 15.168C54.8841 15.24 55.0731 15.345 55.2291 15.483C55.3911 15.615 55.5171 15.774 55.6071 15.96C55.6971 16.14 55.7421 16.338 55.7421 16.554C55.7421 16.842 55.6611 17.1 55.4991 17.328C55.3371 17.55 55.1271 17.73 54.8691 17.868C55.5591 18.24 55.9041 18.771 55.9041 19.461C55.9041 19.713 55.8501 19.941 55.7421 20.145C55.6401 20.349 55.4961 20.523 55.3101 20.667C55.1241 20.811 54.9081 20.922 54.6621 21C54.4161 21.078 54.1491 21.117 53.8611 21.117C53.5731 21.117 53.3091 21.081 53.0691 21.009C52.8351 20.937 52.6341 20.835 52.4661 20.703C52.2981 20.565 52.1661 20.4 52.0701 20.208C51.9801 20.01 51.9351 19.785 51.9351 19.533ZM53.6721 18.255H53.6541C53.1441 18.543 52.8891 18.945 52.8891 19.461C52.8891 19.767 52.9851 20.007 53.1771 20.181C53.3691 20.355 53.6121 20.442 53.9061 20.442C54.2121 20.442 54.4611 20.352 54.6531 20.172C54.8451 19.986 54.9411 19.746 54.9411 19.452C54.9411 18.912 54.5691 18.531 53.8251 18.309L53.6721 18.255ZM53.0241 16.581C53.0241 17.037 53.3721 17.361 54.0681 17.553L54.1761 17.598C54.6021 17.352 54.8151 17.016 54.8151 16.59C54.8151 16.332 54.7281 16.128 54.5541 15.978C54.3861 15.822 54.1731 15.744 53.9151 15.744C53.6631 15.744 53.4501 15.822 53.2761 15.978C53.1081 16.128 53.0241 16.329 53.0241 16.581ZM4.14 29.977C4.14 29.785 4.116 29.602 4.068 29.428C4.026 29.248 3.954 29.092 3.852 28.96C3.75 28.822 3.618 28.714 3.456 28.636C3.294 28.552 3.096 28.51 2.862 28.51C2.4 28.51 2.049 28.717 1.809 29.131C1.569 29.545 1.449 30.139 1.449 30.913C1.449 31.681 1.578 32.269 1.836 32.677C2.094 33.079 2.475 33.28 2.979 33.28C3.483 33.28 4.008 33.052 4.554 32.596C4.8 32.758 4.959 32.965 5.031 33.217C4.899 33.349 4.746 33.469 4.572 33.577C4.404 33.685 4.224 33.781 4.032 33.865C3.846 33.943 3.651 34.003 3.447 34.045C3.249 34.093 3.054 34.117 2.862 34.117C2.4 34.117 2.013 34.03 1.701 33.856C1.389 33.676 1.143 33.442 0.963 33.154C0.789 32.86 0.657 32.524 0.567 32.146C0.483 31.762 0.441 31.366 0.441 30.958C0.441 30.418 0.504 29.947 0.63 29.545C0.756 29.143 0.927 28.81 1.143 28.546C1.365 28.276 1.623 28.075 1.917 27.943C2.211 27.805 2.523 27.736 2.853 27.736C3.195 27.736 3.501 27.784 3.771 27.88C4.047 27.976 4.281 28.105 4.473 28.267C4.671 28.429 4.821 28.615 4.923 28.825C5.025 29.035 5.076 29.257 5.076 29.491C5.076 29.851 4.896 30.031 4.536 30.031C4.422 30.031 4.29 30.013 4.14 29.977ZM7.38464 33.307H7.71764C7.77164 33.457 7.79864 33.589 7.79864 33.703C7.79864 33.817 7.78964 33.907 7.77164 33.973C7.53164 34.015 7.27664 34.036 7.00664 34.036C6.41264 34.036 6.11564 33.727 6.11564 33.109V27.439L6.17864 27.385H6.52964C6.71564 27.385 6.84464 27.433 6.91664 27.529C6.99464 27.619 7.03364 27.769 7.03364 27.979V32.902C7.03364 33.172 7.15064 33.307 7.38464 33.307ZM9.83215 30.328V34C9.71815 34.024 9.56215 34.036 9.36415 34.036C9.17215 34.036 9.01915 34.024 8.90515 34V30.706C8.90515 30.538 8.87515 30.418 8.81515 30.346C8.75515 30.274 8.65315 30.238 8.50915 30.238H8.41015C8.38015 30.106 8.36515 29.995 8.36515 29.905C8.36515 29.815 8.38015 29.701 8.41015 29.563C8.60815 29.539 8.79715 29.527 8.97715 29.527H9.10315C9.33115 29.527 9.50815 29.599 9.63415 29.743C9.76615 29.887 9.83215 30.082 9.83215 30.328ZM8.70715 28.717C8.65315 28.609 8.62615 28.477 8.62615 28.321C8.62615 28.075 8.67115 27.931 8.76115 27.889C8.85115 27.841 9.00115 27.814 9.21115 27.808C9.45115 27.814 9.60415 27.844 9.67015 27.898C9.73615 27.952 9.77215 28.093 9.77815 28.321C9.77215 28.537 9.73615 28.675 9.67015 28.735C9.60415 28.795 9.45115 28.828 9.21115 28.834C8.97715 28.834 8.80915 28.795 8.70715 28.717ZM13.5715 31.273V31.174C13.5715 30.496 13.3075 30.157 12.7795 30.157C12.4915 30.157 12.2695 30.295 12.1135 30.571C11.9575 30.847 11.8795 31.258 11.8795 31.804C11.8795 32.836 12.2185 33.352 12.8965 33.352C13.2325 33.352 13.5955 33.202 13.9855 32.902C14.0695 32.95 14.1505 33.028 14.2285 33.136C14.3065 33.244 14.3575 33.349 14.3815 33.451C13.9375 33.895 13.4005 34.117 12.7705 34.117C12.4525 34.117 12.1765 34.06 11.9425 33.946C11.7145 33.826 11.5225 33.661 11.3665 33.451C11.2165 33.241 11.1025 32.989 11.0245 32.695C10.9525 32.401 10.9165 32.077 10.9165 31.723C10.9165 31.357 10.9675 31.033 11.0695 30.751C11.1715 30.463 11.3065 30.223 11.4745 30.031C11.6485 29.839 11.8465 29.692 12.0685 29.59C12.2965 29.488 12.5365 29.437 12.7885 29.437C13.0465 29.437 13.2745 29.476 13.4725 29.554C13.6765 29.632 13.8475 29.734 13.9855 29.86C14.1295 29.986 14.2375 30.133 14.3095 30.301C14.3875 30.463 14.4265 30.628 14.4265 30.796C14.4265 31.138 14.2705 31.309 13.9585 31.309C13.8025 31.309 13.6735 31.297 13.5715 31.273ZM18.3838 32.326L18.6898 33.073C18.8278 33.439 18.9718 33.673 19.1218 33.775C18.9538 33.967 18.7468 34.063 18.5008 34.063C18.3448 34.063 18.2248 34.024 18.1408 33.946C18.0568 33.862 17.9788 33.727 17.9068 33.541L17.5468 32.659C17.4508 32.425 17.3488 32.269 17.2408 32.191C17.1388 32.107 17.0158 32.065 16.8718 32.065C16.7278 32.065 16.5598 32.071 16.3678 32.083V34C16.2538 34.024 16.1038 34.036 15.9178 34.036C15.7318 34.036 15.5788 34.024 15.4588 34V27.439L15.5128 27.385H15.8728C16.0588 27.385 16.1878 27.43 16.2598 27.52C16.3318 27.61 16.3678 27.763 16.3678 27.979V31.309L16.6738 31.291C16.7698 31.291 16.8418 31.249 16.8898 31.165L17.6818 29.923C17.8318 29.659 18.0238 29.527 18.2578 29.527C18.4918 29.527 18.6658 29.53 18.7798 29.536L18.8338 29.608L17.8528 31.165C17.7628 31.309 17.6638 31.426 17.5558 31.516C17.9278 31.612 18.2038 31.882 18.3838 32.326ZM22.161 34V30.22L21.387 30.238C21.375 30.19 21.366 30.136 21.36 30.076C21.354 30.016 21.351 29.956 21.351 29.896C21.351 29.758 21.363 29.641 21.387 29.545L22.116 29.554C22.08 29.188 22.062 28.921 22.062 28.753C22.062 28.549 22.092 28.363 22.152 28.195C22.218 28.021 22.311 27.871 22.431 27.745C22.551 27.619 22.695 27.523 22.863 27.457C23.031 27.385 23.22 27.349 23.43 27.349C23.85 27.349 24.24 27.418 24.6 27.556C24.6 27.826 24.528 28.036 24.384 28.186C24.246 28.144 24.114 28.111 23.988 28.087C23.868 28.063 23.757 28.051 23.655 28.051C23.403 28.051 23.22 28.12 23.106 28.258C22.998 28.39 22.944 28.591 22.944 28.861C22.944 28.963 22.95 29.071 22.962 29.185C22.974 29.299 22.989 29.425 23.007 29.563L24.276 29.545C24.288 29.599 24.297 29.656 24.303 29.716C24.309 29.77 24.312 29.83 24.312 29.896C24.312 29.956 24.309 30.016 24.303 30.076C24.297 30.136 24.288 30.19 24.276 30.238L23.07 30.22V34C23.004 34.012 22.932 34.021 22.854 34.027C22.776 34.033 22.695 34.036 22.611 34.036C22.527 34.036 22.446 34.033 22.368 34.027C22.29 34.021 22.221 34.012 22.161 34ZM27.8149 33.622C27.4849 33.952 27.0499 34.117 26.5099 34.117C26.1979 34.117 25.9219 34.063 25.6819 33.955C25.4419 33.841 25.2379 33.682 25.0699 33.478C24.9079 33.268 24.7819 33.022 24.6919 32.74C24.6079 32.452 24.5659 32.131 24.5659 31.777C24.5659 31.429 24.6079 31.111 24.6919 30.823C24.7819 30.535 24.9079 30.289 25.0699 30.085C25.2379 29.875 25.4419 29.716 25.6819 29.608C25.9219 29.494 26.1979 29.437 26.5099 29.437C26.8219 29.437 27.0979 29.494 27.3379 29.608C27.5779 29.716 27.7789 29.875 27.9409 30.085C28.1089 30.289 28.2349 30.535 28.3189 30.823C28.4089 31.111 28.4539 31.429 28.4539 31.777C28.4539 32.581 28.2409 33.196 27.8149 33.622ZM26.5099 30.148C25.8559 30.148 25.5289 30.691 25.5289 31.777C25.5289 32.863 25.8559 33.406 26.5099 33.406C27.1699 33.406 27.4999 32.863 27.4999 31.777C27.4999 30.691 27.1699 30.148 26.5099 30.148ZM29.2957 29.986C29.3557 29.764 29.4697 29.599 29.6377 29.491C30.0517 29.581 30.3247 29.848 30.4567 30.292C30.6967 29.758 31.0897 29.491 31.6357 29.491C31.7797 29.491 31.9387 29.509 32.1127 29.545C32.1127 29.893 32.0377 30.187 31.8877 30.427C31.8337 30.409 31.7107 30.394 31.5187 30.382C31.1107 30.382 30.7897 30.61 30.5557 31.066V34C30.4417 34.024 30.2857 34.036 30.0877 34.036C29.8957 34.036 29.7427 34.024 29.6287 34V30.913C29.6287 30.505 29.5177 30.196 29.2957 29.986ZM35.0097 27.844L36.8637 27.817C37.1757 27.817 37.4577 27.862 37.7097 27.952C37.9677 28.036 38.1867 28.162 38.3667 28.33C38.5467 28.498 38.6847 28.708 38.7807 28.96C38.8767 29.206 38.9247 29.491 38.9247 29.815C38.9247 30.139 38.8737 30.427 38.7717 30.679C38.6757 30.931 38.5377 31.144 38.3577 31.318C38.1777 31.486 37.9587 31.615 37.7007 31.705C37.4487 31.789 37.1697 31.831 36.8637 31.831H35.9097V34C35.8437 34.012 35.7687 34.021 35.6847 34.027C35.6007 34.033 35.5137 34.036 35.4237 34.036C35.3397 34.036 35.2557 34.033 35.1717 34.027C35.0877 34.021 35.0157 34.012 34.9557 34V27.907L35.0097 27.844ZM35.9097 31.075L36.8277 31.066C37.0317 31.066 37.2027 31.033 37.3407 30.967C37.4847 30.895 37.5987 30.802 37.6827 30.688C37.7667 30.574 37.8267 30.442 37.8627 30.292C37.9047 30.142 37.9257 29.986 37.9257 29.824C37.9257 29.656 37.9047 29.497 37.8627 29.347C37.8267 29.197 37.7667 29.065 37.6827 28.951C37.5987 28.837 37.4847 28.747 37.3407 28.681C37.2027 28.615 37.0347 28.582 36.8367 28.582C36.6267 28.582 36.4437 28.582 36.2877 28.582C36.1377 28.582 36.0117 28.579 35.9097 28.573V31.075ZM39.5613 29.986C39.6213 29.764 39.7353 29.599 39.9033 29.491C40.3173 29.581 40.5903 29.848 40.7223 30.292C40.9623 29.758 41.3553 29.491 41.9013 29.491C42.0453 29.491 42.2043 29.509 42.3783 29.545C42.3783 29.893 42.3033 30.187 42.1533 30.427C42.0993 30.409 41.9763 30.394 41.7843 30.382C41.3763 30.382 41.0553 30.61 40.8213 31.066V34C40.7073 34.024 40.5513 34.036 40.3533 34.036C40.1613 34.036 40.0083 34.024 39.8943 34V30.913C39.8943 30.505 39.7833 30.196 39.5613 29.986ZM45.9028 33.622C45.5728 33.952 45.1378 34.117 44.5978 34.117C44.2858 34.117 44.0098 34.063 43.7698 33.955C43.5298 33.841 43.3258 33.682 43.1578 33.478C42.9958 33.268 42.8698 33.022 42.7798 32.74C42.6958 32.452 42.6538 32.131 42.6538 31.777C42.6538 31.429 42.6958 31.111 42.7798 30.823C42.8698 30.535 42.9958 30.289 43.1578 30.085C43.3258 29.875 43.5298 29.716 43.7698 29.608C44.0098 29.494 44.2858 29.437 44.5978 29.437C44.9098 29.437 45.1858 29.494 45.4258 29.608C45.6658 29.716 45.8668 29.875 46.0288 30.085C46.1968 30.289 46.3228 30.535 46.4068 30.823C46.4968 31.111 46.5418 31.429 46.5418 31.777C46.5418 32.581 46.3288 33.196 45.9028 33.622ZM44.5978 30.148C43.9438 30.148 43.6168 30.691 43.6168 31.777C43.6168 32.863 43.9438 33.406 44.5978 33.406C45.2578 33.406 45.5878 32.863 45.5878 31.777C45.5878 30.691 45.2578 30.148 44.5978 30.148ZM47.7899 34V30.22L47.0159 30.238C47.0039 30.19 46.9949 30.136 46.9889 30.076C46.9829 30.016 46.9799 29.956 46.9799 29.896C46.9799 29.758 46.9919 29.641 47.0159 29.545L47.7449 29.554C47.7089 29.188 47.6909 28.921 47.6909 28.753C47.6909 28.549 47.7209 28.363 47.7809 28.195C47.8469 28.021 47.9399 27.871 48.0599 27.745C48.1799 27.619 48.3239 27.523 48.4919 27.457C48.6599 27.385 48.8489 27.349 49.0589 27.349C49.4789 27.349 49.8689 27.418 50.2289 27.556C50.2289 27.826 50.1569 28.036 50.0129 28.186C49.8749 28.144 49.7429 28.111 49.6169 28.087C49.4969 28.063 49.3859 28.051 49.2839 28.051C49.0319 28.051 48.8489 28.12 48.7349 28.258C48.6269 28.39 48.5729 28.591 48.5729 28.861C48.5729 28.963 48.5789 29.071 48.5909 29.185C48.6029 29.299 48.6179 29.425 48.6359 29.563L49.9049 29.545C49.9169 29.599 49.9259 29.656 49.9319 29.716C49.9379 29.77 49.9409 29.83 49.9409 29.896C49.9409 29.956 49.9379 30.016 49.9319 30.076C49.9259 30.136 49.9169 30.19 49.9049 30.238L48.6989 30.22V34C48.6329 34.012 48.5609 34.021 48.4829 34.027C48.4049 34.033 48.3239 34.036 48.2399 34.036C48.1559 34.036 48.0749 34.033 47.9969 34.027C47.9189 34.021 47.8499 34.012 47.7899 34ZM52.0372 30.328V34C51.9232 34.024 51.7672 34.036 51.5692 34.036C51.3772 34.036 51.2242 34.024 51.1102 34V30.706C51.1102 30.538 51.0802 30.418 51.0202 30.346C50.9602 30.274 50.8582 30.238 50.7142 30.238H50.6152C50.5852 30.106 50.5702 29.995 50.5702 29.905C50.5702 29.815 50.5852 29.701 50.6152 29.563C50.8132 29.539 51.0022 29.527 51.1822 29.527H51.3082C51.5362 29.527 51.7132 29.599 51.8392 29.743C51.9712 29.887 52.0372 30.082 52.0372 30.328ZM50.9122 28.717C50.8582 28.609 50.8312 28.477 50.8312 28.321C50.8312 28.075 50.8762 27.931 50.9662 27.889C51.0562 27.841 51.2062 27.814 51.4162 27.808C51.6562 27.814 51.8092 27.844 51.8752 27.898C51.9412 27.952 51.9772 28.093 51.9832 28.321C51.9772 28.537 51.9412 28.675 51.8752 28.735C51.8092 28.795 51.6562 28.828 51.4162 28.834C51.1822 28.834 51.0142 28.795 50.9122 28.717ZM54.6786 33.307H55.0116C55.0656 33.457 55.0926 33.589 55.0926 33.703C55.0926 33.817 55.0836 33.907 55.0656 33.973C54.8256 34.015 54.5706 34.036 54.3006 34.036C53.7066 34.036 53.4096 33.727 53.4096 33.109V27.439L53.4726 27.385H53.8236C54.0096 27.385 54.1386 27.433 54.2106 27.529C54.2886 27.619 54.3276 27.769 54.3276 27.979V32.902C54.3276 33.172 54.4446 33.307 54.6786 33.307ZM59.2792 32.074H56.6332C56.6512 32.488 56.7382 32.806 56.8942 33.028C57.0562 33.25 57.3262 33.361 57.7042 33.361C57.8842 33.361 58.0762 33.334 58.2802 33.28C58.4902 33.226 58.7062 33.139 58.9282 33.019C59.0782 33.157 59.1772 33.355 59.2252 33.613C58.7452 33.949 58.1812 34.117 57.5332 34.117C57.1912 34.117 56.9032 34.057 56.6692 33.937C56.4352 33.817 56.2432 33.652 56.0932 33.442C55.9492 33.232 55.8442 32.983 55.7782 32.695C55.7122 32.401 55.6792 32.086 55.6792 31.75C55.6792 31.42 55.7212 31.114 55.8052 30.832C55.8892 30.544 56.0092 30.298 56.1652 30.094C56.3212 29.89 56.5132 29.731 56.7412 29.617C56.9752 29.497 57.2362 29.437 57.5242 29.437C57.8122 29.437 58.0672 29.485 58.2892 29.581C58.5172 29.677 58.7092 29.812 58.8652 29.986C59.0212 30.154 59.1382 30.358 59.2162 30.598C59.3002 30.832 59.3422 31.087 59.3422 31.363C59.3422 31.483 59.3362 31.603 59.3242 31.723C59.3182 31.837 59.3032 31.954 59.2792 32.074ZM57.5512 30.13C56.9812 30.13 56.6752 30.553 56.6332 31.399H58.4512V31.282C58.4512 30.94 58.3762 30.664 58.2262 30.454C58.0822 30.238 57.8572 30.13 57.5512 30.13Z" fill="#CDCDCF"/>
</svg>
